<svg xmlns="http://www.w3.org/2000/svg" width="114.933" height="116.484" viewBox="0 0 114.933 116.484">
  <g id="Component_3_1" data-name="Component 3 – 1" transform="translate(0 0)">
    <path id="Path_8" data-name="Path 8" d="M204.867,210.033a42.521,42.521,0,1,1,42.521-42.521c0,.6-.064,1.174-.09,1.765h13.384v11.692a57.437,57.437,0,1,0-55.816,44.009h0V210.033Z" transform="translate(-147.401 -110.045)" fill="#d2c4f8"/>
    <path id="Path_9" data-name="Path 9" d="M197.494,187.231a25.887,25.887,0,1,1,27.094-24.62c-.008.178-.041.35-.053.528h16.627c.025-.59.09-1.169.09-1.765A42.522,42.522,0,1,0,198.731,203.9h0V187.228C198.319,187.228,197.91,187.252,197.494,187.231Z" transform="translate(-141.264 -103.908)" fill="#8b68f1"/>
    <path id="Path_10" data-name="Path 10" d="M193.137,128.686a25.887,25.887,0,0,0-2.474,51.714c.416.02.825,0,1.237,0V156.308h25.8c.012-.178.044-.35.053-.528A25.887,25.887,0,0,0,193.137,128.686Z" transform="translate(-134.433 -97.077)" fill="#4612d6"/>
    <path id="Path_11" data-name="Path 11" d="M227.2,177.619l-10.666-10.666-3.239-3.238h23.789V144.953H181.269V200.77H200.03V176.98l2.808,2.808L213.68,190.63l11.576,11.576,13.266-13.266Z" transform="translate(-123.802 -85.722)" fill="#06d49e"/>
  </g>
</svg>
